<svg xmlns="http://www.w3.org/2000/svg" width="92.982" height="100.908" viewBox="0 0 92.982 100.908">
  <g id="armchair" transform="translate(0 0)">
    <path id="armchair-2" data-name="armchair" d="M109.157,27.3c0-7.386-4.9-14.293-13.8-19.448C86.612,2.79,75,0,62.668,0S38.727,2.79,29.981,7.856c-8.9,5.155-13.8,12.061-13.8,19.448,0,.245-.007,1.11-.007,1.3A6.165,6.165,0,0,0,18,33c6.019,6,7.108,32,5.948,47.69l-.176,2.331a3.677,3.677,0,0,0,3.675,3.941h.308l1.534,13.944h7.535V86.963H88.5v13.944h7.535l1.534-13.944h.307a3.675,3.675,0,0,0,3.674-3.942l-.172-2.329C100.221,65.006,101.308,39,107.325,33a6.166,6.166,0,0,0,1.828-4.4C109.154,28.447,109.157,27.6,109.157,27.3ZM62.668,1.79c22.6,0,41.339,9.629,44.287,22.079a6.256,6.256,0,0,0-8.456.339c-2.914,2.9-5.12,7.128-6.745,12.917a81.127,81.127,0,0,0-2.359,12.917H77.577c.216-2.03.79-7,1.784-12.782,1.706-9.922,3.863-17.668,6.237-22.4a.9.9,0,0,0-1.607-.8c-5.377,10.714-7.764,31.546-8.222,35.981h-12.2V10.115a.9.9,0,0,0-1.8,0V50.042h-12.2c-.458-4.435-2.845-25.267-8.222-35.981a.9.9,0,0,0-1.607.8c2.373,4.729,4.529,12.47,6.235,22.386.994,5.78,1.569,10.762,1.786,12.795H35.936a81.289,81.289,0,0,0-2.357-12.917c-1.629-5.791-3.836-10.016-6.749-12.917a6.256,6.256,0,0,0-8.442-.35C21.343,11.413,40.073,1.79,62.668,1.79Zm26.557,61.4a.9.9,0,0,1-.9.894H37.011a.9.9,0,0,1-.9-.894s.066-10.7.059-10.776a.9.9,0,0,1,.838-.584H88.328a.9.9,0,0,1,.831.56C89.152,52.467,89.225,63.191,89.225,63.191ZM27.512,85.173a1.969,1.969,0,0,1-1.375-.529,1.866,1.866,0,0,1-.57-1.49l.176-2.33a173.658,173.658,0,0,0-.3-28.119c-.741-7.491-2.411-17.2-6.162-20.957a4.23,4.23,0,0,1-1.044-1.575,4.459,4.459,0,0,1,1.7-5.251,4.241,4.241,0,0,1,1.568-.657,4.458,4.458,0,0,1,4.05,1.208c2.651,2.641,4.767,6.724,6.289,12.134a78.994,78.994,0,0,1,2.276,12.4,34.906,34.906,0,0,1,.216,4.041c-.014,3.087-.023,9.141-.023,9.141a2.663,2.663,0,0,0,.689,1.786c.139,9.117-.377,16.2-.4,16.491l-.322,3.705H27.512ZM30.9,99.118,29.565,86.963h5.466V99.118Zm5.186-13.945.309-3.562c.022-.3.51-6.989.416-15.736h51.7c-.092,8.745.4,15.44.42,15.748l.311,3.55H36.089ZM94.427,99.118H90.3V86.963h5.466ZM99.885,52.7a173.7,173.7,0,0,0-.3,28.119l.172,2.329a1.86,1.86,0,0,1-.568,1.49,1.972,1.972,0,0,1-1.377.53H91.046l-.324-3.694c-.023-.3-.538-7.38-.4-16.487a2.664,2.664,0,0,0,.7-1.8s-.009-6.07-.026-9.169a33.579,33.579,0,0,1,.194-3.865,79.139,79.139,0,0,1,2.294-12.549c1.489-5.306,3.553-9.335,6.134-11.981a4.647,4.647,0,0,1,3.019-1.442,4.452,4.452,0,0,1,3.977,1.96,4.2,4.2,0,0,1,.654,1.549,4.42,4.42,0,0,1-1.211,4.044C102.3,35.482,100.626,45.207,99.885,52.7Z" transform="translate(-16.175 0)" fill="#152340" opacity="0.7"/>
  </g>
</svg>
