<svg xmlns="http://www.w3.org/2000/svg" width="758.88" height="492.781" viewBox="0 0 758.88 492.781">
  <g id="Group_42" data-name="Group 42" transform="translate(-773 -3550)">
    <g id="undraw_Newsletter_re_wrob" transform="translate(773 3550)">
      <path id="Path_362" data-name="Path 362" d="M979.978,434.763a77.826,77.826,0,0,1-71.846,77.6c-.654.05-1.323.1-1.991.129V438.625a4.948,4.948,0,0,0-1.836-3.852,1.244,1.244,0,0,0-.22-.18,1.86,1.86,0,0,0-.229-.16,4.99,4.99,0,0,0-4.76-.349l-.828-1.816a6.992,6.992,0,0,1,2.884-.629l-56.835-48.962c.439-.5.9-.988,1.357-1.477a77.835,77.835,0,0,1,134.3,53.562Z" transform="translate(-221.098 -203.406)" fill="#f2f2f2"/>
      <path id="Path_363" data-name="Path 363" d="M239.5,487.977a10.065,10.065,0,0,1,9.709-12l44.863-53.406,11.2,14.32-45.722,49.7a10.12,10.12,0,0,1-20.051,1.379Z" transform="translate(-219.767 -203.55)" fill="#ffb8b8"/>
      <path id="Path_364" data-name="Path 364" d="M452.849,422.233a10.5,10.5,0,0,0-.831,1.43l-48.986,7-7.439-9.444-15.72,9.363,14.776,23.038,59.744-17.611a10.473,10.473,0,1,0-1.545-13.779Z" transform="translate(-220.076 -203.54)" fill="#ffb8b8"/>
      <path id="Path_365" data-name="Path 365" d="M149.426,397.935l8.669,8.631,37.418-29.327L182.719,364.5Z" transform="translate(-0.329 -0.804)" fill="#ffb8b8"/>
      <path id="Path_366" data-name="Path 366" d="M0,0H38.446V14.854H14.854A14.854,14.854,0,0,1,0,0H0Z" transform="translate(166.47 430.453) rotate(-135.123)" fill="#2f2e41"/>
      <path id="Path_367" data-name="Path 367" d="M103.246,480.876h12.233l5.819-47.184H103.244Z" transform="translate(-0.227 -0.956)" fill="#ffb8b8"/>
      <path id="Path_368" data-name="Path 368" d="M0,0H38.446V14.854H14.854A14.854,14.854,0,0,1,0,0H0Z" transform="translate(138.84 491.278) rotate(179.997)" fill="#2f2e41"/>
      <path id="Path_369" data-name="Path 369" d="M320.271,647.123l-13.934-102.76a128.666,128.666,0,0,1,2-46.614c2.859-12.285,6.722-20.794,11.481-25.291a4.708,4.708,0,0,1,2.737-1.25l46-4.792a4.7,4.7,0,0,1,4.5,2.249l1.512,2.52a4.686,4.686,0,0,1,.441.971l9.727,30.154a3.609,3.609,0,0,0,1.8,2.122c15.314,7.819,65.06,34.212,62.213,45.6-2.675,10.7-27.718,28.048-35.33,33.109a4.65,4.65,0,0,1-5.228-.04l-12.635-8.645a4.683,4.683,0,0,1-.133-7.635l8.713-6.42a3.643,3.643,0,0,0-.955-6.37l-46.8-16.42a3.642,3.642,0,0,0-4.836,3.14l-8.628,105.455a4.7,4.7,0,0,1-4.433,4.295l-13.35.668c-.081,0-.162.006-.242.006a4.652,4.652,0,0,1-4.631-4.053Z" transform="translate(-219.911 -203.647)" fill="#2f2e41"/>
      <circle id="Ellipse_72" data-name="Ellipse 72" cx="24.507" cy="24.507" r="24.507" transform="translate(96.951 128.677)" fill="#ffb8b8"/>
      <path id="Path_370" data-name="Path 370" d="M318.437,468.09,300.4,402.27l.309-.208c.387-.261,39.27-25.936,84.793-5.246l.825.474-10.689,68.316a6.771,6.771,0,0,1-6.43,5.764l-43.986,1.692c-.089,0-.177.005-.265.005A6.736,6.736,0,0,1,318.437,468.09Z" transform="translate(-219.901 -203.476)" fill="#ccc"/>
      <path id="Path_371" data-name="Path 371" d="M299.674,445.15,284.65,427.873a4.676,4.676,0,0,1-.106-6.019l15.706-19.4,12.057,3.288,6.392,22.373-11.655,16.65a4.655,4.655,0,0,1-3.591,1.991c-.084,0-.168.006-.251.006a4.65,4.65,0,0,1-3.527-1.61Z" transform="translate(-219.864 -203.506)" fill="#ccc"/>
      <path id="Path_372" data-name="Path 372" d="M382.941,441.537a4.655,4.655,0,0,1-3.591-1.991L367.7,422.9l5.606-23.551,11.1-3.028,2.071.988,15.377,19.331a4.676,4.676,0,0,1-.106,6.019L386.72,439.934a4.65,4.65,0,0,1-3.527,1.61Q383.067,441.543,382.941,441.537Z" transform="translate(-220.049 -203.492)" fill="#ccc"/>
      <path id="Path_373" data-name="Path 373" d="M905.294,433.483a.978.978,0,0,1-.24.679,1,1,0,0,1-1.406.11l-3.343-2.884L843.47,382.425,684.061,245.078a5.009,5.009,0,0,0-6.526.01l-214.667,186.5-1.936,1.676a.961.961,0,0,1-.249.16,1,1,0,0,1-.509.08,1.023,1.023,0,0,1-.648-.329,1,1,0,0,1,.09-1.407l.269-.239L676.228,243.581a7.031,7.031,0,0,1,9.139-.02L844.826,380.948l60.117,51.806a1.013,1.013,0,0,1,.35.728Z" transform="translate(-220.251 -203.153)" fill="#3f3d56"/>
      <path id="Path_374" data-name="Path 374" d="M784.067,462.862l-2.625-7.224-9.04-24.945-19.477-53.712-21.772-60.038L691.89,208.653a8.5,8.5,0,0,0-10.866-5.079l-227.01,82.309a8.494,8.494,0,0,0-5.079,10.866L504.6,450.27l.948,2.624,58.431,26.482,16.424,7.444,2.664,1.207,69.537,31.521,2.694-.978,45.609-16.534,68.8-24.945,9.27-3.363a8.5,8.5,0,0,0,5.089-10.866Z" transform="translate(-220.227 -203.067)" fill="#e6e6e6"/>
      <path id="Path_375" data-name="Path 375" d="M689.06,335.257a12.494,12.494,0,0,0-15.985-7.474l-89.822,32.578-43.374,15.725a12.471,12.471,0,1,0,8.5,23.448l34.873-12.642,98.333-35.651A12.494,12.494,0,0,0,689.06,335.257Z" transform="translate(-220.41 -203.34)" fill="#fff"/>
      <path id="Path_376" data-name="Path 376" d="M704.91,378.977a12.5,12.5,0,0,0-15.985-7.474l-15.216,5.518-90.421,32.788L555.729,419.8a12.476,12.476,0,1,0,8.5,23.458l19.058-6.915,114.148-41.389c.259-.09.509-.2.758-.309A12.471,12.471,0,0,0,704.91,378.977Z" transform="translate(-220.445 -203.436)" fill="#fff"/>
      <path id="Path_377" data-name="Path 377" d="M720.93,423.157a12.483,12.483,0,0,0-15.975-7.473l-42.676,15.476-33.038,11.984-45.919,16.643-11.574,4.2a12.5,12.5,0,0,0-8.113,13.39,12.345,12.345,0,0,0,.6,2.465l16.424,7.444,2.664-.968h.02L666.67,456.1l46.786-16.963a12.484,12.484,0,0,0,7.474-15.985Z" transform="translate(-220.48 -203.533)" fill="#fff"/>
      <path id="Path_378" data-name="Path 378" d="M627.38,292.277A12.494,12.494,0,0,0,611.4,284.8l-51.586,18.7a12.476,12.476,0,0,0,8.5,23.458l16.324-5.917,10.806-3.921,24.467-8.87A12.484,12.484,0,0,0,627.38,292.277Z" transform="translate(-220.454 -203.245)" fill="#fff"/>
      <path id="Path_379" data-name="Path 379" d="M833.316,317.2H591.848a8.483,8.483,0,0,0-7.144,3.921,8.4,8.4,0,0,0-1.337,4.56v162.6L652.9,519.8l9.8,4.44,15.476,7.015a7,7,0,0,0,5.768,0l15.476-7.015,48.433-21.952,45.141-20.465,48.8-22.111V325.676A8.487,8.487,0,0,0,833.316,317.2Z" transform="translate(-220.524 -203.318)" fill="#6c63ff"/>
      <path id="Path_380" data-name="Path 380" d="M783.527,431.2H641.84a12.469,12.469,0,0,0-12.453,11.984,4,4,0,0,0-.02.489A12.49,12.49,0,0,0,641.84,456.14H783.527a12.472,12.472,0,0,0,0-24.945Z" transform="translate(-220.625 -203.569)" fill="#fff"/>
      <path id="Path_381" data-name="Path 381" d="M791.6,480.668a12.384,12.384,0,0,0-8.073-2.973H641.839a12.473,12.473,0,0,0,0,24.945H747.955L793.1,482.175A12.557,12.557,0,0,0,791.6,480.668Z" transform="translate(-220.625 -203.671)" fill="#fff"/>
      <path id="Path_382" data-name="Path 382" d="M662.877,524.7l15.476,7.015a7.005,7.005,0,0,0,5.768,0L699.6,524.7Z" transform="translate(-220.698 -203.775)" fill="#fff"/>
      <path id="Path_383" data-name="Path 383" d="M751.933,377.887a12.479,12.479,0,0,0-11.714-8.192H685.339a12.482,12.482,0,0,0-11.355,7.324,12.332,12.332,0,0,0-1.118,5.149,12.49,12.49,0,0,0,12.473,12.472h54.879a12.471,12.471,0,0,0,11.714-16.753Z" transform="translate(-220.72 -203.434)" fill="#fff"/>
      <path id="Path_384" data-name="Path 384" d="M742.731,502.539,694.3,524.491l-11.464,5.2a5.006,5.006,0,0,1-4.111,0l-11.464-5.2h-4.839l15.476,7.015a7,7,0,0,0,5.768,0l15.476-7.015,48.433-21.952Zm0,0L694.3,524.491l-11.464,5.2a5.006,5.006,0,0,1-4.111,0l-11.464-5.2h-4.839l15.476,7.015a7,7,0,0,0,5.768,0l15.476-7.015,48.433-21.952Zm0,0L694.3,524.491l-11.464,5.2a5.006,5.006,0,0,1-4.111,0l-11.464-5.2h-4.839l15.476,7.015a7,7,0,0,0,5.768,0l15.476-7.015,48.433-21.952ZM905.283,433.9a7.618,7.618,0,0,0-1.207-.978,6.945,6.945,0,0,0-6.665-.489l-106.2,48.134L742.73,502.539,694.3,524.491l-11.464,5.2a5.006,5.006,0,0,1-4.111,0l-11.464-5.2-11.944-5.418L583.1,486.355l-.02-.01-19.687-8.93-58.78-26.641-40.471-18.34a6.093,6.093,0,0,0-1.287-.429,6.693,6.693,0,0,0-2.984-.06,7,7,0,0,0-5.6,6.845V689.367a6.992,6.992,0,0,0,6.985,6.985H900.293a6.992,6.992,0,0,0,6.985-6.985V438.79A6.956,6.956,0,0,0,905.283,433.9Zm0,255.467a4.991,4.991,0,0,1-4.989,4.989H461.262a4.991,4.991,0,0,1-4.989-4.989V438.79a4.99,4.99,0,0,1,2.285-4.191,5.155,5.155,0,0,1,1.606-.679,4.5,4.5,0,0,1,.509-.08,3.892,3.892,0,0,1,.589-.04,4.959,4.959,0,0,1,2.055.449L505.564,453.4,564,479.879l16.424,7.444,2.664,1.207L652.62,520.05l9.8,4.44,15.476,7.015a7,7,0,0,0,5.768,0l15.476-7.015,48.433-21.952,45.141-20.465L898.238,434.25a4.99,4.99,0,0,1,4.76.349,1.834,1.834,0,0,1,.229.16,1.237,1.237,0,0,1,.22.18,4.948,4.948,0,0,1,1.836,3.851ZM742.731,502.539,694.3,524.491l-11.464,5.2a5.006,5.006,0,0,1-4.111,0l-11.464-5.2h-4.839l15.476,7.015a7,7,0,0,0,5.768,0l15.476-7.015,48.433-21.952Zm0,0L694.3,524.491l-11.464,5.2a5.006,5.006,0,0,1-4.111,0l-11.464-5.2h-4.839l15.476,7.015a7,7,0,0,0,5.768,0l15.476-7.015,48.433-21.952ZM580.419,487.323l2.664,1.207v-2.175Zm162.312,15.216L694.3,524.491l-11.464,5.2a5.006,5.006,0,0,1-4.111,0l-11.464-5.2h-4.839l15.476,7.015a7,7,0,0,0,5.768,0l15.476-7.015,48.433-21.952Z" transform="translate(-220.24 -203.57)" fill="#3f3d56"/>
      <path id="Path_386" data-name="Path 386" d="M332.054,374.428a10.678,10.678,0,0,1,.988-19.484c7.4-2.854,15.686,2.97,23.438,1.314,7.726-1.65,12.2-10.887,10.352-18.57s-8.556-13.469-15.958-16.232a34.4,34.4,0,0,0-29.676,2.72,31.681,31.681,0,0,0-14.912,25.577A29.373,29.373,0,0,0,320.5,375.488c1.97,1.136,4.264,2.047,6.479,1.536a18.059,18.059,0,0,0,5.077-2.6Z" transform="translate(-219.914 -203.323)" fill="#2f2e41"/>
      <path id="Path_387" data-name="Path 387" d="M323.922,323.541c-6.521-8.649-15.324-15.755-25.567-19.278s-21.949-3.24-31.569,1.738-16.795,14.866-17.544,25.672c-1.246,17.985,14.121,33.273,15.7,51.232A34.45,34.45,0,0,1,219.724,418.6a36.27,36.27,0,0,0,27.956,7.934,33.712,33.712,0,0,0,23.994-16.146c3.459-6.009,4.879-12.99,5.431-19.9a88.424,88.424,0,0,0-3.46-32.422c-1.724-5.728-4.061-11.624-2.968-17.505a15.931,15.931,0,0,1,12.408-12.426c4.942-.926,10,.582,14.715,2.318s9.477,3.745,14.5,3.86,10.5-2.186,12.445-6.824Z" transform="translate(-219.724 -203.285)" fill="#2f2e41"/>
    </g>
  </g>
</svg>
