<svg xmlns="http://www.w3.org/2000/svg" xmlns:xlink="http://www.w3.org/1999/xlink" width="602.825" height="596.58" viewBox="0 0 602.825 596.58">
  <defs>
    <linearGradient id="linear-gradient" x1="0.5" y1="1" x2="0.5" gradientUnits="objectBoundingBox">
      <stop offset="0" stop-color="gray" stop-opacity="0.251"/>
      <stop offset="0.54" stop-color="gray" stop-opacity="0.122"/>
      <stop offset="1" stop-color="gray" stop-opacity="0.102"/>
    </linearGradient>
  </defs>
  <g id="Group_10" data-name="Group 10" transform="translate(-34.466 -46.308)">
    <path id="Path_3" data-name="Path 3" d="M294.46,49.348c16.216-21.359,41.658-25.714,64.821-24.011,72.747,5.342,138.421,57.277,195.2,116.019,20.566,21.261,40.809,44.181,54.156,73.466,27.169,59.616,19.111,142.2-18.692,191.316-12.852,16.7-28.437,29.517-44.456,40.872-28.447,20.171-59.137,36.4-91.439,41.014-23.021,3.287-46.326.612-69.211-3.974-63.947-12.827-126.716-41.186-179.342-89.7-23.077-21.284-44.825-47.737-54.333-82.177s-3.344-77.994,20.218-98.411c9.745-8.427,21.395-12.237,32.8-15.808,16.787-5.229,33.848-10.459,49-21.142,15.661-11.042,34.181-32.408,31.084-56.859C280.946,93.731,278.294,70.684,294.46,49.348Z" transform="translate(-53.49 21.304)" fill="#6c63ff" opacity="0.1"/>
    <ellipse id="Ellipse_1" data-name="Ellipse 1" cx="301.412" cy="57.383" rx="301.412" ry="57.383" transform="translate(34.466 528.121)" fill="#6c63ff"/>
    <path id="Path_4" data-name="Path 4" d="M774.532,497.954s-4.792-1.453-11.162-3.284a22.279,22.279,0,0,0-8.987-2.529c-7.518-2.066-15.239-4.03-19.418-4.643-9.89-1.453-27.352-6.968-27.352-6.968-6.693.581-13.676-4.36-13.676-4.36s-7.219-13.071-11.414-15.946A3.142,3.142,0,0,0,682,459.9a9.938,9.938,0,0,1-1.65-1.2c-4.313-14.061-13.731-14.925-14.218-14.972h0c-1.822-2.066-3.472-3.967-4.713-5.444,4.855-26.253,19.379-55.561,52.756-80.337,0,0,19.827-23.2,8.3-50.054s-14.752-27.3-34.564-22.293l-44.783,21.39s-12.631,3-37.156,4.383c-2.042-4.093-5.216-7.478-9.576-8.531-9.191-2.215-17.2,7.408-26.025,4.76-6.732-2.019-14.862-9.961-21.477-2.27-.935,1.084-1.571,2.412-2.451,3.527a9.907,9.907,0,0,1-2.168,1.972c-15.035-.99-31.728-2.639-50.039-5.208L454.6,281.963s-24.43-11.375-25.349,18.656-3.228,44.131,7.368,52.324c7.682,5.931,32.772,46.488,42.168,81.358-1.383,1.98-2.239,3.229-2.239,3.229s-26.779,36.315-28.813,37.187c-.134.055-.189.251-.181.55-.393.848-1.571,2.474-5.349,3.519-5.24,1.453-28.515,8.421-31.72,8.421s-17.745.872-19.206,6.685a20.1,20.1,0,0,1,2.757.055l-.7.888c-3.975,5.106-10.668,14.619-11.076,21.131-.589,9.293,2.035,38.051,17.172,37.761s8.146-42.984,8.146-42.984l1.775-5.216.047-.126,1.225,8.586c.267-.149.526-.3.786-.424,1.375,4.179,6.363,8.272,20.471,8.554,0,0,21.822,2.035,38.122,34.564,14.792,29.536,63.888,56.912,99.81,56.708v47.863l-4.941,1.453-64.155,1.1a4.2,4.2,0,0,0-4.132,4l-.393,8.264,18.6,1.752L456.9,691.761s-10.212-.872-8.445,13.653h14.265l.291-2.906,115.819-8.13,6.7,1.665c-.935,4.894-1.877,8.884-2.121,9.929l-.071.267a2.276,2.276,0,0,1-.094.534c-.683-.236-1.068-.393-1.068-.393-1.571,1.791-2.474,20.479-2.616,22.372s7.274,4.171,7.274,4.171c3.362,1.233,16.41,0,16.41,0h0c4.313-.251,15.884-4.3,15.884-4.3l-1.021-20.479c-.5.165-1.005.314-1.508.456q.047-.432.094-.9c.1-1.2.189-2.49.267-3.818l51.8,12.843h1.453v2.616h16.009s1.453-11.037-4.368-14.525-36.378-15.4-36.378-15.4l7.321-.691h0l29.183-2.773v.786h4.36l-.094-1.218,8.1-.786,9.6.291s-.291-12.2-7.565-13.071c-1.257-.157-5.389-.573-11.343-1.17l-1.893-22.993c4.643-7.855,16.591,15.97,16.591,15.97s.047.181.118.479c.573,2.443,3.252,13.354,5.067,14.6h.055a25.149,25.149,0,0,0,3.142,1.438,62.946,62.946,0,0,0,14.58,3.5c9.316,1.17,29.685-4.933,33.519-6.968a4.822,4.822,0,0,0,1.634-1.351c1.3-1.838-.228-3.826-.228-3.826l-4.093-.416c3.6-1.626,4.289-7.667-2.427-8.814-.259-.047-.526-.078-.786-.11a10.679,10.679,0,0,1,1.21-1.673c-3.5.668-12.812-3.558-12.812-3.558a21.535,21.535,0,0,0-4.179-1.32l-.1-.181c-.141-.259-.275-.526-.4-.786-2.011-4.218-2.773-9.426-3.464-13.354-1.453-8.429-18.476-40.958-18.476-40.958s-5.931-13.543-11-27.918c6.025-5.145,10.675-10.9,13.354-17.282h0l5-7.683A93.485,93.485,0,0,0,728.28,534l5.082-7.808h0c9.474-.691,25.051-1.775,33.055-2.035,2.294,12.435,5.075,26.842,6.331,30.754,2.357,7.266,14.265-1.163,18.916-19.748S774.532,497.954,774.532,497.954ZM595.124,651.2V610.356c2.49-.393,5.232-.856,8.177-1.383-1.76,10.424-3.928,19.96-3.928,19.96C599.562,634.032,596.7,645.375,595.124,651.2Zm93.219-12.859,1.508.5a16.5,16.5,0,0,1,6.41,4.124A51.682,51.682,0,0,0,688.343,638.345Zm-9.261-37.556s3.5,6.685-3.488,17.722c-5.239,8.28-2.129,13.134,5.412,16.881a59.935,59.935,0,0,0-7.588-2.066l.369.212c-6.143-1.343-3.142,4.14-3.142,4.14,6.1,5.923,8.932,20.887,10.212,32.757-16.025-1.571-41.209-4.03-61.562-5.994a53.691,53.691,0,0,0,.691-6.135c0-3.488,3.786-17.14,3.786-17.14s10.88-25.333,16.881-40.589A247.878,247.878,0,0,0,673.921,588.9c2.8,6.151,5.161,11.885,5.161,11.885Z" transform="translate(-247.657 -105.401)" fill="url(#linear-gradient)"/>
    <rect id="Rectangle_2" data-name="Rectangle 2" width="25.019" height="71.617" transform="translate(322.833 497.917)" fill="#6c63ff"/>
    <rect id="Rectangle_3" data-name="Rectangle 3" width="25.019" height="71.617" transform="translate(322.833 497.917)" opacity="0.3"/>
    <path id="Path_5" data-name="Path 5" d="M516.722,770.611l-.393,8.185,18.413,1.728L477.5,794.334s-10.063-.864-8.334,13.519h14.092l.283-2.875,114.476-8.06,88.876,22.152h1.438v2.584h15.821s1.438-10.927-4.32-14.375-35.946-15.247-35.946-15.247l48.318-4.6,9.489.291s-.283-12.082-7.478-12.946S605.448,764.13,605.448,764.13H589.1l-4.894,1.469-63.369,1.045a4.163,4.163,0,0,0-4.116,3.967Z" transform="translate(-266.269 -209.262)" fill="#6c63ff"/>
    <path id="Path_6" data-name="Path 6" d="M646.919,691.63v8.3c-9.01,1.438-14.666,2.05-14.666,2.05a57.949,57.949,0,0,1-10.353.935V691.63Z" transform="translate(-299.068 -193.713)" opacity="0.1"/>
    <path id="Path_7" data-name="Path 7" d="M893,594.795c-4.6,18.405-16.394,26.747-18.7,19.552-2.089-6.559-8.515-42.851-9.607-49.12-.1-.6-.165-.927-.165-.927l-1.147-7.47,9.741.88,2.906.267S897.6,576.382,893,594.795Z" transform="translate(-350.856 -164.803)" fill="#ffb8b8"/>
    <path id="Path_8" data-name="Path 8" d="M423.72,564.838s-10.063,16.968,18.986,17.541c0,0,21.571,2.011,37.706,34.226s73.346,61.837,109.009,55.223c0,0,119.4-12.883,133.675-59.528l9.851-25.318s40.848-3.142,45.153-2.592,1.438-11.783,1.438-11.783l-10.644-7.761-25.31,4.313-28.758,26.457-89.771,42.278-86.574-12.372s-68.452-43.99-69.025-46.017-27.612-20.424-27.612-20.424Z" transform="translate(-256.204 -165.286)" fill="#6c63ff"/>
    <path id="Path_9" data-name="Path 9" d="M414.957,553.028v4.32l-2.286,6.63-1.76,5.161s6.9,42.285-8.052,42.568-17.533-28.193-16.96-37.384c.408-6.449,7.023-15.868,10.95-20.919,1.673-2.168,2.859-3.535,2.859-3.535Z" transform="translate(-248.439 -163.31)" fill="#ffb8b8"/>
    <path id="Path_10" data-name="Path 10" d="M516.722,770.611l-.393,8.185,18.413,1.728L477.5,794.334s-10.063-.864-8.334,13.519h14.092l.283-2.875,114.476-8.06,88.876,22.152h1.438v2.584h15.821s1.438-10.927-4.32-14.375-35.946-15.247-35.946-15.247l48.318-4.6,9.489.291s-.283-12.082-7.478-12.946S605.448,764.13,605.448,764.13H589.1l-4.894,1.469-63.369,1.045a4.163,4.163,0,0,0-4.116,3.967Z" transform="translate(-266.269 -209.262)" opacity="0.3"/>
    <path id="Path_11" data-name="Path 11" d="M423.72,564.838s-10.063,16.968,18.986,17.541c0,0,21.571,2.011,37.706,34.226s73.346,61.837,109.009,55.223c0,0,119.4-12.883,133.675-59.528l9.851-25.318s40.848-3.142,45.153-2.592,1.438-11.783,1.438-11.783l-10.644-7.761-25.31,4.313-28.758,26.457-89.771,42.278-86.574-12.372s-68.452-43.99-69.025-46.017-27.612-20.424-27.612-20.424Z" transform="translate(-256.204 -165.286)" opacity="0.4"/>
    <path id="Path_12" data-name="Path 12" d="M756.892,501.261l-24.6,27.494c-58.774,68.027-169.479,42.8-208.167,37.391s-58.475-64.414-58.475-64.414a14.873,14.873,0,0,0,4.4-.181c6.512-1.115,18.719-6.5,25.828-30.455,10.023-33.778-33.26-107.226-43.739-115.332s-8.2-22.074-7.29-51.845,25.027-18.491,25.027-18.491l39.182,23.425C605.182,322.371,656.21,310.2,656.21,310.2l44.186-21.17c19.591-4.957,22.78-4.509,34.171,22.074s-8.2,49.559-8.2,49.559c-66.056,49.1-57.4,116.259-46.928,141.011,7.07,16.693,39.732,10.7,60.321,5C749.744,503.956,756.892,501.261,756.892,501.261Z" transform="translate(-260.912 -106.147)" fill="#6c63ff"/>
    <path id="Path_13" data-name="Path 13" d="M756.892,501.261l-24.6,27.494c-58.774,68.027-169.479,42.8-208.167,37.391s-58.475-64.414-58.475-64.414a14.873,14.873,0,0,0,4.4-.181c6.512-1.115,18.719-6.5,25.828-30.455,10.023-33.778-33.26-107.226-43.739-115.332s-8.2-22.074-7.29-51.845,25.027-18.491,25.027-18.491l39.182,23.425C605.182,322.371,656.21,310.2,656.21,310.2l44.186-21.17c19.591-4.957,22.78-4.509,34.171,22.074s-8.2,49.559-8.2,49.559c-66.056,49.1-57.4,116.259-46.928,141.011,7.07,16.693,39.732,10.7,60.321,5C749.744,503.956,756.892,501.261,756.892,501.261Z" transform="translate(-260.912 -106.147)" opacity="0.1"/>
    <path id="Path_14" data-name="Path 14" d="M750.423,501.57l-23.291,26.292c-55.655,65.144-160.493,40.981-197.169,35.8s-55.365-61.7-55.365-61.7a14.022,14.022,0,0,0,4.156-.173c6.174-1.068,17.729-6.229,24.462-29.159,9.489-32.364-31.492-102.685-41.413-110.446s-7.785-21.115-6.9-49.567,23.731-17.69,23.731-17.69l37.1,22.4c91.028,12.938,139.354,1.3,139.354,1.3l41.846-20.283c18.554-4.713,21.571-4.313,32.356,21.139s-7.761,47.462-7.761,47.462C658.963,413.959,667.156,478.279,677.109,502c6.677,15.986,37.619,10.212,57.116,4.792C743.659,504.154,750.423,501.57,750.423,501.57Z" transform="translate(-263.076 -108.208)" fill="#6c63ff"/>
    <path id="Path_15" data-name="Path 15" d="M845.8,540.543s-10.353-.864-11.5,6.323l-71.617,6.017-17.808,1.461L726.02,488.164l-3.59-12.624,8.916,2.875s3.3,3.928,7.423,8.578c5.8,6.567,13.236,14.7,15.585,15.868a3.465,3.465,0,0,1,.518.322c4.14,2.844,11.272,15.789,11.272,15.789s6.9,4.894,13.527,4.313c0,0,17.282,5.459,27.03,6.9S845.8,540.543,845.8,540.543Z" transform="translate(-320.628 -147.369)" fill="#3f3d56"/>
    <path id="Path_16" data-name="Path 16" d="M756.025,558.53l-23.291,26.292c-55.655,65.144-160.493,40.981-197.169,35.8s-55.365-61.7-55.365-61.7a14.02,14.02,0,0,0,4.156-.173,106.836,106.836,0,0,1,13.959,13.982c40.557,48.036,102.12,44.87,102.12,44.87s89.158,10.636,121.947-39.41a141.346,141.346,0,0,1,17.431-14.477C749.262,561.114,756.025,558.53,756.025,558.53Z" transform="translate(-268.678 -165.168)" opacity="0.1"/>
    <path id="Path_17" data-name="Path 17" d="M845.8,540.543s-10.353-.864-11.5,6.323l-71.617,6.017-17.808,1.461L726.02,488.164l-3.59-12.624,8.916,2.875s3.3,3.928,7.423,8.578c5.8,6.567,13.236,14.7,15.585,15.868a3.465,3.465,0,0,1,.518.322c4.14,2.844,11.272,15.789,11.272,15.789s6.9,4.894,13.527,4.313c0,0,17.282,5.459,27.03,6.9S845.8,540.543,845.8,540.543Z" transform="translate(-320.628 -147.369)" opacity="0.1"/>
    <path id="Path_18" data-name="Path 18" d="M876.891,558.841s-10.353-.864-11.5,6.324l-.7.063c-.1-.6-.165-.927-.165-.927l-1.147-7.47,9.741.88Z" transform="translate(-350.856 -164.803)" opacity="0.1"/>
    <path id="Path_19" data-name="Path 19" d="M721.462,612.869c-17.282,19.057-50.2,41.083-109.629,39.1,0,0-106.99,13.527-146.4-67.87,0,0-15.255-27.965-43.519-12.506l-.786.424L419.4,559.932s25.31-33.943,65.859,14.093,102.12,44.87,102.12,44.87,89.166,10.636,121.954-39.41c0,0,46.347-46.873,68.169-18.114l1.186,8.727.259,1.917s-22.733-7.486-38.79,12.074Z" transform="translate(-255.639 -162.972)" opacity="0.1"/>
    <path id="Path_20" data-name="Path 20" d="M419.42,557.733s25.31-33.935,65.867,14.092a118.972,118.972,0,0,0,15.255,15.09c39.1,32.238,86.849,29.8,86.849,29.8s89.158,10.644,121.947-39.4c0,0,46.347-46.881,68.169-18.122l1.438,10.644s-24.43-8.107-40.549,14.36c0,0-23.3,69.025-126.558,65.576,0,0-106.99,13.519-146.4-67.878,0,0-15.53-28.476-44.289-12.082Z" transform="translate(-255.643 -162.501)" fill="#6c63ff"/>
    <path id="Path_21" data-name="Path 21" d="M660.123,366.219l-2.074.165c-2.207-4.352-2.765-23.566-1.964-41.72l-1.72-.071c-.377,8.539-1.186,33.919,2.019,41.916-20.314,1.508-110.541,7.643-142.732-.047,11.139-23.519,3.1-43.259,3.016-43.464l-1.571.668c.078.2,7.738,18.971-2.757,41.633-5.24-8.2-32.93-49.34-57.58-43.99l.369,1.689c22.781-4.965,49.528,33.692,55.4,42.67l-1.053-.267,2.278,2.2.786,1.233.149-.3c4.148,4.462,22.631,26.229,21.626,58.6-.283,9.151,5.766,17.36,17.494,23.755,13.166,7.18,31.084,10.919,47.2,10.919,12.922,0,24.689-2.4,31.893-7.368,5.805-4,8.405-9.5,7.533-15.938-4.768-35.106,22.372-70.329,22.828-70.91,37.156-44.469,67.8-41.28,68.106-41.249l.212-1.712C728.26,324.475,697.844,321.231,660.123,366.219Zm-23.441,72.513c.786,5.829-1.492,10.636-6.795,14.289-15.459,10.644-54.461,8.806-77.289-3.637-7.753-4.234-16.921-11.508-16.591-22.191.951-30.73-15.318-52.12-21.037-58.656,34.3,7.243,123.958,1.013,142.331-.369a2.217,2.217,0,0,0,.864.683c-6.009,8.539-25.687,39.19-21.484,69.881Z" transform="translate(-263.222 -114.19)" opacity="0.1"/>
    <path id="Path_22" data-name="Path 22" d="M582.81,760.36l36.284,10.526-7.235.691Z" transform="translate(-214.244 -188.815)" opacity="0.1"/>
    <path id="Path_23" data-name="Path 23" d="M453.421,758.264,479.6,751.94l-33.385,5.648Z" transform="translate(-184.948 -187.009)" opacity="0.1"/>
    <path id="Path_24" data-name="Path 24" d="M417.962,553.026v4.32l-2.286,6.63c-3.048-8.358-11.382-10.212-15.836-10.581,1.673-2.168,2.859-3.535,2.859-3.535Z" transform="translate(-251.444 -163.308)" opacity="0.1"/>
    <path id="Path_25" data-name="Path 25" d="M459.389,530.438,453.066,529s-.291,2.584-5.5,4.022-28.185,8.342-31.351,8.342-17.549.864-18.986,6.614c0,0,16.975-1.147,19.56,13.81l49.182-2.3Z" transform="translate(-250.884 -158.834)" fill="#3f3d56"/>
    <path id="Path_26" data-name="Path 26" d="M459.389,530.438,453.066,529s-.291,2.584-5.5,4.022-28.185,8.342-31.351,8.342-17.549.864-18.986,6.614c0,0,16.975-1.147,19.56,13.81l49.182-2.3Z" transform="translate(-250.884 -158.834)" fill="#4e4c62" opacity="0.1"/>
    <path id="Path_27" data-name="Path 27" d="M752.26,728.91s14.446,8.248,19.953,16.229a152.95,152.95,0,0,1,10.212,17.934s10.785,4.713,2.914-12.427S752.26,728.91,752.26,728.91Z" transform="translate(-327.025 -201.708)" fill="#3f3d56"/>
    <path id="Path_28" data-name="Path 28" d="M752.26,728.91s14.446,8.248,19.953,16.229a152.95,152.95,0,0,1,10.212,17.934s10.785,4.713,2.914-12.427S752.26,728.91,752.26,728.91Z" transform="translate(-327.025 -201.708)" fill="#3f3d56"/>
    <path id="Path_29" data-name="Path 29" d="M752.26,728.91s14.446,8.248,19.953,16.229a152.95,152.95,0,0,1,10.212,17.934s10.785,4.713,2.914-12.427S752.26,728.91,752.26,728.91Z" transform="translate(-327.025 -201.708)" opacity="0.1"/>
    <path id="Path_30" data-name="Path 30" d="M587.752,314.611c-.919,1.076-1.571,2.357-2.412,3.488-3.661,4.548-10.558,4.352-15.8,6.9-7.18,3.5-10.652,12.137-10.448,20.125s3.37,15.554,6.339,22.977,5.829,15.169,5.4,23.142c-.251,4.713-1.65,9.3-3.04,13.818-.9,2.922-2,6.1-4.619,7.675a147.5,147.5,0,0,0,23.8,2.294c22.906.353,45.82-4.6,68.617-2.317a21.288,21.288,0,0,1-6.544-20.094,79.006,79.006,0,0,1,2.8-8.319,45.183,45.183,0,0,0,.086-28.751c-.927-2.757-2.121-5.428-2.906-8.225-1.807-6.5-1.328-13.425-2.616-20.047s-5.153-13.55-11.712-15.137c-9.081-2.192-17,7.329-25.726,4.713C602.324,314.862,594.3,306.991,587.752,314.611Z" transform="translate(-285.595 -112.157)" fill="#3f3d56"/>
    <g id="Group_4" data-name="Group 4" transform="translate(273.729 231.526)" opacity="0.1">
      <path id="Path_31" data-name="Path 31" d="M676.58,400.157a45.167,45.167,0,0,0,2.357-15.357,45.215,45.215,0,0,1-2.357,13.629,80.282,80.282,0,0,0-2.8,8.319,20.027,20.027,0,0,0-.432,5.208,19.973,19.973,0,0,1,.432-3.48A77.278,77.278,0,0,1,676.58,400.157Z" transform="translate(-583.824 -359.435)"/>
      <path id="Path_32" data-name="Path 32" d="M571.149,397.67c.212-7.706-2.561-15.2-5.436-22.38-2.946-7.368-6.08-14.886-6.324-22.781v1.571c.2,7.981,3.37,15.554,6.331,22.969C568.377,383.672,570.945,390.6,571.149,397.67Z" transform="translate(-559.39 -352.51)"/>
      <path id="Path_33" data-name="Path 33" d="M655.152,438.011c-22.191-1.846-44.485,2.812-66.77,2.474a149,149,0,0,1-22.113-2.011,6.943,6.943,0,0,1-1.689,1.438,147.491,147.491,0,0,0,23.8,2.294c22.906.353,45.812-4.6,68.609-2.357A19.769,19.769,0,0,1,655.152,438.011Z" transform="translate(-560.503 -370.754)"/>
    </g>
    <path id="Path_34" data-name="Path 34" d="M641.375,847.12l18.963,3.5-1.3,2.262s-12.9,1.225-16.221,0S641.375,847.12,641.375,847.12Z" transform="translate(-324.339 -227.06)" fill="#3f3d56"/>
    <path id="Path_35" data-name="Path 35" d="M666.019,626.518s78.632-24.792,75.757-40.612-72.7-19.638-75.757-15.577S666.019,626.518,666.019,626.518Z" transform="translate(-308.238 -167.375)" fill="#3f3d56"/>
    <path id="Path_36" data-name="Path 36" d="M666.019,626.518s78.632-24.792,75.757-40.612-72.7-19.638-75.757-15.577S666.019,626.518,666.019,626.518Z" transform="translate(-308.238 -167.375)" opacity="0.2"/>
    <path id="Path_37" data-name="Path 37" d="M642.526,434.858,627.6,448.095l-18.986,3.448-34.226-4.313L555.12,433.994s3.4-.746,12.946-2.875l7.761-1.72c15.538-3.456,9.206-29.065,9.206-29.065s42.568-22.718,37.109,6.041c-2.977,15.671,3.346,22.718,9.725,25.923A26.056,26.056,0,0,0,642.526,434.858Z" transform="translate(-284.746 -129.413)" fill="#ffb8b8"/>
    <circle id="Ellipse_2" data-name="Ellipse 2" cx="33.087" cy="33.087" r="33.087" transform="translate(288.135 222.178)" opacity="0.1"/>
    <circle id="Ellipse_3" data-name="Ellipse 3" cx="33.087" cy="33.087" r="33.087" transform="translate(288.135 221.314)" fill="#ffb8b8"/>
    <path id="Path_38" data-name="Path 38" d="M642.526,445.589,627.6,458.825l-18.986,3.449-34.226-4.313L555.12,444.725s3.4-.746,12.946-2.875L570.077,443h61.79A26.056,26.056,0,0,0,642.526,445.589Z" transform="translate(-284.746 -140.144)" opacity="0.1"/>
    <path id="Path_39" data-name="Path 39" d="M589.113,443.722H622.97s11.587-4.32,15.326-1.728,14.383,2.875,15.821,1.728,22.718,10.668,30.487,27.321l-27.612,21.838L537.055,540.649s-5.5-9.5-3.456-12.655-3.739-9.191-3.739-9.191-2.011-10.644,0-13.8L504.55,473.36s17.549-25.6,21.579-28.185c0,0,1.438-4.242,2.875-3.991s27.085.786,27.085.786l3.142,1.775Z" transform="translate(-273.9 -139.997)" fill="#3f3d56"/>
    <path id="Path_40" data-name="Path 40" d="M589.113,443.722H622.97s11.587-4.32,15.326-1.728,14.383,2.875,15.821,1.728,22.718,10.668,30.487,27.321l-2.867,2.27-24.744,19.568L537.055,540.649s-5.5-9.5-3.456-12.655-3.739-9.191-3.739-9.191-2.011-10.644,0-13.8L504.55,473.36s17.549-25.6,21.579-28.185c0,0,1.438-4.242,2.875-3.991s27.085.786,27.085.786l3.142,1.775Z" transform="translate(-273.9 -139.997)" fill="#4e4c62" opacity="0.1"/>
    <path id="Path_41" data-name="Path 41" d="M507.371,478.1l-10.644,3.142s-26.457,35.978-28.468,36.842S481.2,548.57,481.2,548.57s5.177-4.03,7.769-6.614,33.071-29.065,33.071-29.065Z" transform="translate(-266.077 -147.918)" fill="#3f3d56"/>
    <path id="Path_42" data-name="Path 42" d="M507.371,478.1l-10.644,3.142s-26.457,35.978-28.468,36.842S481.2,548.57,481.2,548.57s5.177-4.03,7.769-6.614,33.071-29.065,33.071-29.065Z" transform="translate(-266.077 -147.918)" fill="#4e4c62" opacity="0.1"/>
    <path id="Path_43" data-name="Path 43" d="M763.661,556.011l-17.808,1.461L727,491.29l12.749-1.17c5.8,6.567,13.236,14.7,15.585,15.868a3.454,3.454,0,0,1,.518.322,52.04,52.04,0,0,1,1.485,9.638c1.728,25.137,4.022,30.063,4.022,30.063S762.349,550.064,763.661,556.011Z" transform="translate(-321.608 -150.496)" opacity="0.1"/>
    <path id="Path_44" data-name="Path 44" d="M819.037,715.622c-.487-.071-1.162-.141-1.987-.22l-.786-.071c-10.471-.911-39.175-2.3-39.175-2.3a72.8,72.8,0,0,0-2.066-7.51c-.11-.354-.236-.723-.361-1.092-2.7-7.855-7.8-18.633-15.986-21.3-13.229-4.313-20.99-9.206-14.085-20.141s3.448-17.541,3.448-17.541-9.56-23.291-12.828-26.166c-1.932-1.7-6.716-11.265-10.377-20.2-.354-.864-.707-1.736-1.029-2.592-2.058-5.255-3.566-9.969-3.661-12.309-.267-6.057-11.131-56.409-12.977-64.925-.165-.786-.259-1.225-.259-1.225a1.7,1.7,0,0,0-.071-.4c-.5-3.079-3.252-23.4,10.715-26.072l17.659-1.626h0c.589.047,14.289,1.312,15.978,25.923,1.728,25.137,4.022,30.062,4.022,30.062s7.2,29.065,7.769,44.579,17.682,54.65,17.682,54.65,16.826,32.207,18.272,40.557c.683,3.928,1.43,9.081,3.417,13.26.126.267.259.526.393.786,2.239,4.2,5.9,7.227,12.3,6.661a18.629,18.629,0,0,1,2.938,0,11.622,11.622,0,0,1,1.249.149C827.246,707.916,824.576,716.384,819.037,715.622Z" transform="translate(-317.166 -150.455)" fill="#ffb8b8"/>
    <path id="Path_45" data-name="Path 45" d="M729.761,548.85c-.291,24.194-1.437,45.2-1.437,45.2s-1.445,5.381-3.362,12.569c-2.561-6.284-4.58-12.184-4.713-14.925-.306-6.567-13.268-66.1-13.268-66.1a1.706,1.706,0,0,0-.071-.4l1.791.4S730.013,524.656,729.761,548.85Z" transform="translate(-334.581 -157.232)" opacity="0.1"/>
    <path id="Path_46" data-name="Path 46" d="M713.115,548.381c-.291,24.194-1.438,45.2-1.438,45.2s-1.108,4.132-2.663,10c-3.409,12.828-9,33.967-9.992,38.319-1.438,6.284-20.424,50.612-20.424,50.612s-3.747,13.527-3.747,16.975-2.592,17.282-2.592,17.282v12.364s0,11.555-.676,19.269c-.063.621-.126,1.218-.181,1.775-.291,2.451-.66,4.281-1.155,4.839-2,2.309-10.636,16.111-10.636,16.111s-1.115,0-2.828-.039h0c-3.928-.118-11.06-.589-15.2-2.474a5.757,5.757,0,0,1-2.938-2.357c-2.105-4.2-.785-14.281-.22-17.918.126-.848.22-1.351.22-1.351a.8.8,0,0,1,.071-.267c.668-2.8,6.371-27.1,3.386-32.521-3.142-5.75,7.2-18.114,7.2-18.114s5.46-18.7,5.177-25.6c0,0,7.769-33.943,5.75-43.432-.6-2.867-.118-10.346.856-19.411,1.265-11.555,3.315-25.687,4.91-36.056,1.3-8.46,2.294-14.422,2.294-14.422s-.479-.149-1.241-.322c-2-.456-5.962-1.06-8.256.6-3.142,2.3-2.019-24.446-2.019-24.446l25.569-20,9.756,2.121a15.512,15.512,0,0,1,1.98.071C699.376,525.663,713.35,528.75,713.115,548.381Z" transform="translate(-322.051 -157.548)" fill="#ffb8b8"/>
    <path id="Path_47" data-name="Path 47" d="M834.8,770.724a4.642,4.642,0,0,1-1.618,1.336c-3.786,2.019-23.92,8.06-33.126,6.9a62.171,62.171,0,0,1-14.383-3.464,24.627,24.627,0,0,1-3.142-1.422h-.047c-1.8-1.2-4.446-12.042-5.02-14.454-.063-.306-.11-.479-.11-.479s-11.783-23.566-16.394-15.813l3.142,38.546h-4.313s-.573-38.263-11.218-48.617c0,0-3.079-5.64,3.449-4.022s22.152,12.082,23.88,18.122a57.047,57.047,0,0,0,4.713,10.613c1.225,2.231,2.168,3.763,2.168,3.763l42.293,4.273,9.481.951S836.081,768.9,834.8,770.724Z" transform="translate(-326.079 -201.716)" fill="#3f3d56"/>
    <path id="Path_48" data-name="Path 48" d="M844.257,781.755a4.641,4.641,0,0,1-1.618,1.336c-3.786,2.019-23.92,8.06-33.126,6.9a62.169,62.169,0,0,1-14.383-3.464,24.624,24.624,0,0,1-3.142-1.422h-.047c9.246-1.65,29.67-4.98,42.8-4.713C838.774,780.427,842.128,780.867,844.257,781.755Z" transform="translate(-335.535 -212.747)" opacity="0.1"/>
    <path id="Path_49" data-name="Path 49" d="M834.835,770.806c0,.471,0,.966.047,1.477-10.471-.911-39.175-2.3-39.175-2.3a74.938,74.938,0,0,0-2.427-8.641c7.557-3.464,18.381-7.2,27.706-5.452,2.192,4.611,5.9,8.052,12.694,7.447a18.618,18.618,0,0,1,2.938,0A16.291,16.291,0,0,0,834.835,770.806Z" transform="translate(-335.823 -207.399)" opacity="0.1"/>
    <path id="Path_50" data-name="Path 50" d="M835.806,771.907v.683l-.786-.071c-10.471-.911-39.175-2.3-39.175-2.3a72.767,72.767,0,0,0-2.066-7.51c7.447-3.472,18.319-7.337,27.737-5.758,2.239,4.2,5.9,7.227,12.3,6.661a18.632,18.632,0,0,1,2.938,0,11.616,11.616,0,0,1,1.249.149A16.166,16.166,0,0,0,835.806,771.907Z" transform="translate(-335.93 -207.644)" opacity="0.1"/>
    <path id="Path_51" data-name="Path 51" d="M833.177,771.915a19.54,19.54,0,0,0,.275,3.331h-.094l-39.6,6.19a24.635,24.635,0,0,1-3.142-1.422h-.047c-1.8-1.2-4.446-12.042-5.02-14.454.911-.495,1.98-1.053,3.181-1.65,8.594-4.3,23.9-10.393,35.247-5.436,0,0,9.206,4.187,12.655,3.527C836.618,761.97,833.208,765.5,833.177,771.915Z" transform="translate(-334.165 -207.652)" fill="#3f3d56"/>
    <path id="Path_52" data-name="Path 52" d="M671.4,824.4c-.291,2.451-.66,4.281-1.155,4.839-2,2.309-10.636,16.111-10.636,16.111s-1.131,0-2.867-.039c-.228-3.716-1.642-9.843-8.35-9.976-5.3-.1-6.685,3.888-6.85,7.5a5.757,5.757,0,0,1-2.938-2.357c-2.105-4.2-.786-14.281-.22-17.918C642.164,823.872,656.925,828.444,671.4,824.4Z" transform="translate(-322.042 -221.793)" opacity="0.1"/>
    <path id="Path_53" data-name="Path 53" d="M671.583,822.181c-.063.62-.126,1.217-.181,1.775-.291,2.451-.66,4.281-1.155,4.839-2,2.309-10.636,16.111-10.636,16.111s-1.115,0-2.828-.039c.055-3.032-.479-11.54-8.39-11.7-6.174-.118-7.07,5.318-6.85,9.23a5.757,5.757,0,0,1-2.938-2.357c-2.105-4.2-.785-14.281-.22-17.918.126-.848.22-1.351.22-1.351a.8.8,0,0,1,.071-.267C642.887,821.922,657.4,826.219,671.583,822.181Z" transform="translate(-322.042 -219.78)" opacity="0.1"/>
    <path id="Path_54" data-name="Path 54" d="M636.754,821s18.264,7.329,35.522,1.72L673.313,843s-16.575,5.813-17.282,3.928c0,0,1.288-12.569-8.342-12.749s-6.331,13.142-6.331,13.142-7.329-2.262-7.188-4.132S635.222,822.768,636.754,821Z" transform="translate(-321.337 -221.458)" fill="#3f3d56"/>
    <path id="Path_55" data-name="Path 55" d="M727.34,490.771c-16.355-4.886-26.347,22.278-28.044,27.305-.173.5-.259.786-.259.786-.495.11-.99.228-1.461.361-28.185,7.392-26.488,32.992-25.365,40.447-2-.456-5.962-1.06-8.256.6-3.142,2.3-2.019-24.446-2.019-24.446l25.6-19.921,9.756,2.121a1.7,1.7,0,0,0-.071-.4c-.5-3.079-3.252-23.4,10.715-26.072L725.6,489.93h0Z" transform="translate(-307.612 -150.455)" opacity="0.1"/>
    <path id="Path_56" data-name="Path 56" d="M548.614,532.28l-5.75,14.092s-23.872,33.079-2.011,47.745,96.621,10.746,96.621,10.746l5.5-48.7s-8.358-34.776,26.418-42.867c0,0,10.283-33.472,28.279-28.091L663.333,467.85,616.2,485.4,576.217,506.97Z" transform="translate(-279.708 -145.72)" fill="#3f3d56"/>
    <path id="Path_57" data-name="Path 57" d="M548.614,532.28l-5.75,14.092s-23.872,33.079-2.011,47.745,96.621,10.746,96.621,10.746l5.5-48.7s-8.358-34.776,26.418-42.867c0,0,10.283-33.472,28.279-28.091L663.333,467.85,616.2,485.4,576.217,506.97Z" transform="translate(-279.708 -145.72)" fill="#ccc" opacity="0.1"/>
    <path id="Path_58" data-name="Path 58" d="M555.08,577.049s7.2-17.038,16.111-21.9S555.08,577.049,555.08,577.049Z" transform="translate(-284.737 -164.316)" opacity="0.1"/>
    <path id="Path_59" data-name="Path 59" d="M594.26,532.844S658.4,491.14,681.7,492Z" transform="translate(-293.14 -150.896)" opacity="0.1"/>
    <path id="Path_60" data-name="Path 60" d="M610.269,351.493c11.909,1.178,20.526,12.883,32.333,14.792a5.326,5.326,0,0,0,3-.165c3.016-1.328,2.019-5.813.534-8.751q-3.346-6.614-6.7-13.221c-1.65-3.252-3.378-6.6-6.166-8.955a23.3,23.3,0,0,0-8.115-4.046c-11.359-3.684-24.163-4.611-34.948.5-6.064,2.883-22.4,17.659-13.849,24.768C584.024,362.8,601.275,350.6,610.269,351.493Z" transform="translate(-288.78 -115.748)" opacity="0.1"/>
    <path id="Path_61" data-name="Path 61" d="M610.269,350.393c11.909,1.178,20.526,12.891,32.333,14.792a5.325,5.325,0,0,0,3-.165c3.016-1.328,2.019-5.813.534-8.751q-3.346-6.614-6.7-13.221c-1.65-3.252-3.378-6.6-6.166-8.955a23.3,23.3,0,0,0-8.115-4.045c-11.359-3.676-24.163-4.611-34.948.5-6.064,2.883-22.4,17.659-13.849,24.768C584.024,361.7,601.275,349.5,610.269,350.393Z" transform="translate(-288.78 -115.513)" fill="#3f3d56"/>
    <path id="Path_62" data-name="Path 62" d="M549.38,544.357A49.6,49.6,0,0,0,570.967,542" transform="translate(-283.515 -161.622)" opacity="0.1"/>
    <path id="Path_63" data-name="Path 63" d="M462.59,538.21s5.5.786,5.5,4.556S462.59,538.21,462.59,538.21Z" transform="translate(-264.901 -160.81)" opacity="0.1"/>
    <path id="Path_64" data-name="Path 64" d="M466.07,556.694s1.005-1.752,2.734,1.571S466.07,556.694,466.07,556.694Z" transform="translate(-265.648 -164.675)" opacity="0.1"/>
    <path id="Path_65" data-name="Path 65" d="M645.6,369.194a5.405,5.405,0,0,1-3,.173c-11.783-1.909-20.424-13.613-32.333-14.8-9-.9-26.245,11.3-33.919,4.925a6.284,6.284,0,0,1-2.357-4.195,6.371,6.371,0,0,0,2.357,5.923c7.675,6.379,24.917-5.821,33.919-4.925,11.9,1.178,20.526,12.891,32.333,14.792a5.334,5.334,0,0,0,3-.165c1.7-.786,2.121-2.522,1.893-4.446A3.236,3.236,0,0,1,645.6,369.194Z" transform="translate(-288.779 -121.415)" opacity="0.1"/>
    <path id="Path_66" data-name="Path 66" d="M650.17,532.784s35.145-9.191,44.665-7.164Z" transform="translate(-305.131 -158.047)" opacity="0.1"/>
    <path id="Path_67" data-name="Path 67" d="M416.615,805.8l1.681-20.864,16.6-19.175a84.146,84.146,0,0,1-40.274-1.21l17.431,20.424.668,20.825c-5.3.589-9.324,3.433-9.324,6.858,0,3.849,5.09,6.976,11.359,6.976s11.367-3.142,11.367-6.976C426.12,809.208,422,806.34,416.615,805.8Z" transform="translate(-250.324 -209.352)" fill="#d4dfec" opacity="0.5"/>
    <path id="Path_68" data-name="Path 68" d="M397.2,765.38l13.983,15.467a6.284,6.284,0,0,0,4.713,2.082h0a6.284,6.284,0,0,0,4.713-2.121l13.276-14.925A74.186,74.186,0,0,1,397.2,765.38Z" transform="translate(-250.877 -209.53)" fill="#6c63ff" opacity="0.5"/>
    <ellipse id="Ellipse_4" data-name="Ellipse 4" cx="23" cy="8.829" rx="23" ry="8.829" transform="translate(142.049 542.913)" fill="#d4dfec" opacity="0.5"/>
    <ellipse id="Ellipse_5" data-name="Ellipse 5" cx="20.416" cy="7.015" rx="20.416" ry="7.015" transform="translate(144.296 545.387)" fill="#6c63ff"/>
    <path id="Path_69" data-name="Path 69" d="M329.788,746.07l-3.488,9.151,3.205-9.128" transform="translate(-159.231 -185.75)" fill="#6c63ff" opacity="0.5"/>
    <path id="Path_70" data-name="Path 70" d="M428.24,762.347l9.128-25.97a.518.518,0,0,1,.676-.306h0a.511.511,0,0,1,.283.652l-9.764,25.593" transform="translate(-257.534 -203.236)" fill="#3f3d56" opacity="0.5"/>
    <path id="Path_71" data-name="Path 71" d="M433.16,751.357l5.263-14.98a.518.518,0,0,1,.676-.306h0a.511.511,0,0,1,.283.652l-5.617,14.729" transform="translate(-258.59 -203.236)" fill="#3f3d56"/>
    <line id="Line_1" data-name="Line 1" y1="10.99" x2="3.865" transform="translate(170.706 548.121)" fill="#3f3d56" opacity="0.5"/>
    <circle id="Ellipse_6" data-name="Ellipse 6" cx="4.47" cy="4.47" r="4.47" transform="translate(171.64 540.595)" fill="#6c63ff"/>
    <circle id="Ellipse_7" data-name="Ellipse 7" cx="4.47" cy="4.47" r="4.47" transform="translate(171.64 540.595)" fill="#fff" opacity="0.5"/>
    <circle id="Ellipse_8" data-name="Ellipse 8" cx="1.885" cy="1.885" r="1.885" transform="translate(174.712 542.606)" fill="#6c63ff"/>
    <circle id="Ellipse_9" data-name="Ellipse 9" cx="1.885" cy="1.885" r="1.885" transform="translate(174.712 542.606)" opacity="0.25"/>
    <path id="Path_72" data-name="Path 72" d="M429.56,752.78a4.47,4.47,0,0,0,8.052,1.854A36.418,36.418,0,0,0,429.56,752.78Z" transform="translate(-257.818 -206.827)" fill="#6c63ff" opacity="0.3"/>
    <rect id="Rectangle_4" data-name="Rectangle 4" width="4.462" height="100.47" transform="translate(84.158 384.385)" fill="#535461"/>
    <path id="Path_73" data-name="Path 73" d="M239.614,671.913l-.283,4.525-.393,6.386-.165,2.663-.393,6.394-.173,2.663-.393,6.386-4.509,72.646a12.3,12.3,0,0,1-12.278,11.54H197.642a12.3,12.3,0,0,1-12.278-11.54l-4.509-72.646-.393-6.386-.165-2.663-.4-6.394-.165-2.663-.393-6.386-.283-4.525a6.371,6.371,0,0,1,6.363-6.764h47.839a6.371,6.371,0,0,1,6.355,6.763Z" transform="translate(-122.95 -187.106)" fill="#3f3d56"/>
    <path id="Path_74" data-name="Path 74" d="M142.1,654.52l-.393,6.386H82.5l-.393-6.386Z" transform="translate(-25.72 -165.395)" fill="#9d9cb5"/>
    <path id="Path_75" data-name="Path 75" d="M141.7,666.04l-.393,6.394H83.221l-.4-6.394Z" transform="translate(-25.873 -167.853)" fill="#9d9cb5"/>
    <path id="Path_76" data-name="Path 76" d="M141.285,677.57l-.393,6.386H83.941l-.4-6.386Z" transform="translate(-26.027 -170.313)" fill="#9d9cb5"/>
    <path id="Path_77" data-name="Path 77" d="M128.98,578.826c14.148,9.4,20.035,24.1,20.035,24.1s-17.042-.538-31.19-9.936-20.035-24.1-20.035-24.1S114.836,569.428,128.98,578.826Z" transform="translate(-62.633 -132.684)" fill="#6c63ff"/>
    <path id="Path_78" data-name="Path 78" d="M97.79,568.89s17.692,9.034,23.37,16.5,27.855,17.549,27.855,17.549" transform="translate(-62.633 -132.684)" fill="none" stroke="#535461" stroke-miterlimit="10" stroke-width="2"/>
    <path id="Path_79" data-name="Path 79" d="M183.584,543.047c14.14,10.212,20.031,26.237,20.031,26.237s-17.038-.581-31.186-10.817S152.39,532.23,152.39,532.23,169.436,532.835,183.584,543.047Z" transform="translate(-117.233 -158.941)" fill="#6c63ff"/>
    <path id="Path_80" data-name="Path 80" d="M152.39,532.2s17.69,9.819,23.37,17.949,27.855,19.1,27.855,19.1" transform="translate(-117.233 -158.935)" fill="none" stroke="#535461" stroke-miterlimit="10" stroke-width="2"/>
    <path id="Path_81" data-name="Path 81" d="M231.07,564.036c-10.2,11.852-12.36,27.344-12.36,27.344s14.382-3.734,24.587-15.586,12.36-27.344,12.36-27.344S241.275,552.178,231.07,564.036Z" transform="translate(-131.457 -140.63)" fill="#6c63ff"/>
    <path id="Path_82" data-name="Path 82" d="M255.657,548.45s-13.292,12.152-16.666,20.528S218.71,591.4,218.71,591.4" transform="translate(-131.457 -140.63)" fill="none" stroke="#535461" stroke-miterlimit="10" stroke-width="2"/>
    <path id="Path_83" data-name="Path 83" d="M959.9,667.11s4.54,5.931-2.1,14.925-12.105,16.5-9.89,22.113c0,0,10.008-16.638,18.154-16.873S968.864,677.118,959.9,667.11Z" transform="translate(-379.091 -168.816)" opacity="0.1"/>
    <path id="Path_84" data-name="Path 84" d="M959.971,667.11a7.185,7.185,0,0,1,.927,1.862c7.95,9.34,12.184,18.067,4.54,18.271-7.117.2-15.656,12.93-17.7,16.143a5.656,5.656,0,0,0,.243.731s10.008-16.638,18.154-16.873S968.934,677.118,959.971,667.11Z" transform="translate(-379.161 -168.816)" opacity="0.1"/>
    <path id="Path_85" data-name="Path 85" d="M973.765,676.375c0,2.089-.236,3.778-.526,3.778s-.518-1.689-.518-3.778.291-1.108.581-1.108S973.765,674.285,973.765,676.375Z" transform="translate(-384.518 -170.516)" fill="#3f3d56"/>
    <path id="Path_86" data-name="Path 86" d="M976.761,679.52c-1.838,1.005-3.433,1.61-3.574,1.351s1.233-1.273,3.071-2.27,1.108-.267,1.249,0S978.592,678.522,976.761,679.52Z" transform="translate(-384.616 -171.171)" fill="#3f3d56"/>
    <path id="Path_87" data-name="Path 87" d="M930.007,667.11s-4.54,5.931,2.089,14.925,12.105,16.5,9.9,22.113c0,0-10.008-16.638-18.161-16.873S921.044,677.118,930.007,667.11Z" transform="translate(-373.171 -168.816)" fill="#3f3d56"/>
    <path id="Path_88" data-name="Path 88" d="M959.9,667.11s4.54,5.931-2.1,14.925-12.105,16.5-9.89,22.113c0,0,10.008-16.638,18.154-16.873S968.864,677.118,959.9,667.11Z" transform="translate(-379.091 -168.816)" fill="#d4dfec"/>
    <path id="Path_89" data-name="Path 89" d="M930.007,667.11s-4.54,5.931,2.089,14.925,12.105,16.5,9.9,22.113c0,0-10.008-16.638-18.161-16.873S921.044,677.118,930.007,667.11Z" transform="translate(-373.171 -168.816)" opacity="0.1"/>
    <path id="Path_90" data-name="Path 90" d="M930.007,667.11a7.186,7.186,0,0,0-.927,1.862c-7.95,9.34-12.184,18.067-4.548,18.271,7.117.2,15.656,12.93,17.706,16.143a7.219,7.219,0,0,1-.244.731s-10.008-16.669-18.161-16.873S921.044,677.118,930.007,667.11Z" transform="translate(-373.171 -168.816)" opacity="0.1"/>
    <path id="Path_91" data-name="Path 91" d="M922,676.375c0,2.089.236,3.778.526,3.778s.526-1.689.526-3.778-.291-1.108-.581-1.108S922,674.285,922,676.375Z" transform="translate(-373.64 -170.516)" fill="#d4dfec"/>
    <path id="Path_92" data-name="Path 92" d="M918.054,679.52c1.83,1.005,3.433,1.61,3.574,1.351s-1.241-1.273-3.071-2.27-1.115-.267-1.249,0S916.2,678.522,918.054,679.52Z" transform="translate(-372.554 -171.171)" fill="#d4dfec"/>
    <path id="Path_93" data-name="Path 93" d="M965.81,703.243l-.228,1.854-.314,2.616-.133,1.092-.322,2.624-.134,1.092-.322,2.616-3.629,29.772c-.322,2.655-4.666,4.713-9.906,4.713h-18.9c-5.247,0-9.583-2.074-9.906-4.713l-3.637-29.772-.314-2.616-.133-1.092-.33-2.624-.126-1.092-.322-2.616L917,703.243c-.181-1.5,2.168-2.773,5.137-2.773h38.593C963.642,700.5,966,701.774,965.81,703.243Z" transform="translate(-372.565 -161.831)" fill="#3f3d56"/>
    <path id="Path_94" data-name="Path 94" d="M868.335,681.4l-.322,2.616H820.252l-.322-2.616Z" transform="translate(-275.309 -152.242)" fill="#9d9cb5"/>
    <path id="Path_95" data-name="Path 95" d="M868,686.12l-.314,2.624H820.832l-.322-2.624Z" transform="translate(-275.434 -153.254)" fill="#9d9cb5"/>
    <path id="Path_96" data-name="Path 96" d="M867.672,690.85l-.314,2.616H821.4l-.314-2.616Z" transform="translate(-275.558 -154.269)" fill="#9d9cb5"/>
  </g>
</svg>
